<?xml version="1.0" encoding="utf-8"?>
<svg viewBox="0 0 500 500" xmlns="http://www.w3.org/2000/svg">
  <g transform="matrix(1.522386, -0.010328, 0.010362, 1.527427, -152.97922, -108.232797)" style="visibility: hidden;">
    <path id="path0" d="M 259.814 73.026 C 247.81 75.605 240.33 87.261 243.248 98.842 L 243.775 100.934 L 186.024 158.686 L 128.272 216.438 L 126.06 215.896 C 109.036 211.724 94.471 229.556 102.063 245.276 C 106.5 254.462 117.549 259.548 126.801 256.663 L 128.59 256.105 L 186.302 313.814 C 226.895 354.405 243.957 371.658 243.824 371.978 C 239.319 382.852 247.069 396.829 259.087 399.503 C 274.557 402.945 288.584 387.9 283.877 372.915 L 283.169 370.659 L 340.592 313.237 L 398.014 255.814 L 400.114 256.471 C 415.321 261.226 430.168 247.467 426.831 231.713 C 424.47 220.568 412.216 212.977 401.303 215.902 C 400.3 216.17 399.206 216.457 398.871 216.539 C 398.388 216.657 386.493 204.911 340.751 159.15 L 283.238 101.614 L 283.885 99.79 C 284.679 97.554 284.838 91.389 284.172 88.696 C 281.565 78.144 270.156 70.805 259.814 73.026 M 249.127 108.734 C 256.735 116.177 269.6 116.542 277.345 109.532 C 278.371 108.604 279.326 107.845 279.467 107.845 C 279.608 107.845 305.081 133.203 336.074 164.197 L 392.426 220.549 L 391.273 221.719 C 383.569 229.544 383.485 242.378 391.082 250.787 L 392.142 251.96 L 335.731 308.37 L 279.321 364.781 L 277.568 363.218 C 269.44 355.973 253.907 356.75 248.354 364.679 C 248.118 365.016 247.762 365.291 247.562 365.291 C 247.362 365.291 221.838 339.93 190.841 308.933 L 134.483 252.574 L 136.509 250.386 C 144.032 242.261 143.616 228.594 135.624 221.227 L 134.209 219.923 L 190.704 163.428 C 221.776 132.356 247.219 106.933 247.243 106.933 C 247.267 106.933 248.115 107.743 249.127 108.734 M 204.398 197.031 C 202.993 197.542 202.229 198.198 201.782 199.28 C 201.541 199.863 201.469 210.46 201.526 236.624 L 201.607 273.154 L 202.506 274.093 C 203.948 275.598 204.648 275.674 216.099 275.57 C 226.201 275.478 226.675 275.448 227.497 274.844 C 229.55 273.337 229.418 276.005 229.418 236.112 C 229.418 195.863 229.573 198.695 227.291 197.369 C 225.904 196.562 206.477 196.276 204.398 197.031 M 300.035 197.187 C 297.436 198.367 297.656 194.773 297.656 236.152 C 297.656 277.545 297.435 273.807 299.957 275.093 C 301.7 275.982 321.381 275.892 323.252 274.987 C 325.813 273.747 325.608 276.897 325.702 237.184 C 325.8 196.073 325.98 198.456 322.661 197.069 C 320.799 196.291 301.791 196.39 300.035 197.187 M 182.154 213.902 C 178.629 214.753 178.825 213.376 178.719 237.936 C 178.618 261.267 178.616 261.228 179.895 262.684 C 181.167 264.133 182.552 264.379 189.431 264.379 L 195.376 264.379 L 195.376 239 L 195.376 213.62 L 189.221 213.651 C 185.836 213.668 182.656 213.781 182.154 213.902 M 331.546 238.995 L 331.546 264.421 L 338.309 264.324 C 349.284 264.167 348.25 266.8 348.25 239 C 348.25 211.202 349.285 213.838 338.309 213.671 L 331.546 213.569 L 331.546 238.995 M 235.194 236.112 L 235.194 247.358 L 263.461 247.358 L 291.728 247.358 L 291.728 236.112 L 291.728 224.866 L 263.461 224.866 L 235.194 224.866 L 235.194 236.112" stroke="none" fill="#fafbfb" fill-rule="evenodd"/>
    <path id="path1" d="M 237.169 95.865 C 178.45 106.819 130.05 156.516 122.582 213.525 L 122.376 215.102 L 123.541 215.302 C 124.183 215.412 125.444 215.686 126.344 215.911 L 127.981 216.319 L 129.582 214.937 L 131.182 213.556 L 131.706 210.624 C 141.039 158.431 186.014 113.245 237.321 104.513 C 238.408 104.328 239.652 104.107 240.087 104.021 C 240.542 103.931 241.468 103.18 242.272 102.249 L 243.668 100.632 L 243.26 98.995 C 243.035 98.095 242.763 96.845 242.656 96.218 C 242.421 94.847 242.574 94.857 237.169 95.865 M 284.738 95.755 C 284.738 96.119 284.441 97.625 284.079 99.101 L 283.421 101.785 L 284.411 102.806 C 285.28 103.702 285.705 103.873 287.881 104.201 C 325.469 109.87 363.491 138.034 382.253 174.106 C 388.456 186.034 395.376 206.645 395.376 213.197 C 395.376 213.526 396.037 214.446 396.845 215.242 L 398.315 216.689 L 400.563 216.066 C 401.799 215.724 403.121 215.443 403.5 215.443 C 404.509 215.443 404.189 212.487 402.26 204.007 C 389.419 147.558 343.855 105.084 285.573 95.235 C 284.874 95.117 284.738 95.202 284.738 95.755 M 246.514 202.451 L 229.722 219.245 L 229.722 235.962 L 229.722 252.679 L 246.592 269.547 L 263.461 286.414 L 280.482 269.395 L 297.504 252.375 L 297.455 235.961 L 297.406 219.547 L 280.355 202.602 L 263.305 185.658 L 246.514 202.451 M 291.728 236.264 L 291.728 247.662 L 263.461 247.662 L 235.194 247.662 L 235.194 236.264 L 235.194 224.866 L 263.461 224.866 L 291.728 224.866 L 291.728 236.264 M 396.713 257.146 C 395.548 258.366 395.432 258.653 394.942 261.492 C 386.121 312.687 342.813 356.582 290.634 367.215 C 285.701 368.22 285.57 368.268 284.386 369.451 L 283.177 370.66 L 283.774 372.459 C 284.102 373.448 284.466 374.839 284.581 375.55 C 284.833 377.097 284.458 377.072 290.234 375.925 C 346.512 364.744 390.329 322.201 402.469 266.954 C 403.581 261.896 404.329 257.71 404.145 257.573 C 404.087 257.529 402.944 257.212 401.607 256.868 C 400.27 256.525 398.902 256.153 398.567 256.042 C 398.105 255.888 397.661 256.153 396.713 257.146 M 126.075 256.802 C 124.988 257.102 123.717 257.356 123.25 257.368 C 122.283 257.391 122.269 256.822 123.385 263.012 C 132.223 312.006 169.308 354.591 217.448 371.023 C 226.817 374.221 242.288 377.592 242.594 376.503 C 242.659 376.271 242.96 375.016 243.262 373.714 L 243.812 371.347 L 242.192 369.706 C 240.672 368.168 240.439 368.044 238.415 367.71 C 186.635 359.157 141.894 314.815 131.856 262.1 C 131.222 258.772 129.608 256.049 128.367 256.215 C 128.193 256.238 127.162 256.503 126.075 256.802" stroke="none" fill="#44aba3" fill-rule="evenodd"/>
    <path id="path2" d="M 234.282 105.261 C 189.272 114.946 151.153 149.106 136.551 192.842 C 134.213 199.847 131.143 212.102 131.61 212.569 C 131.672 212.631 156.133 188.273 185.966 158.44 C 220.754 123.652 239.99 104.206 239.6 104.222 C 239.266 104.236 236.873 104.704 234.282 105.261 M 340.652 158.744 C 370.653 188.745 395.235 213.254 395.281 213.208 C 395.431 213.058 393.612 204.597 392.677 201.102 C 381.062 157.658 347.517 122.436 304.494 108.51 C 298.847 106.682 288.54 104.197 286.604 104.197 C 286.33 104.197 310.652 128.743 340.652 158.744 M 190.912 163.544 L 134.625 219.851 L 136.505 221.86 C 144.222 230.107 144.091 243.215 136.212 251.091 L 134.758 252.545 L 191.116 308.904 L 247.475 365.263 L 249.009 363.773 C 256.831 356.176 269.573 355.788 277.558 362.905 L 279.321 364.477 L 335.579 308.218 L 391.838 251.96 L 390.704 250.706 C 383.264 242.47 383.328 229.801 390.851 221.908 L 392.134 220.561 L 335.796 164.222 L 279.458 107.883 L 277.708 109.503 C 269.911 116.722 256.982 116.591 249.272 109.214 C 248.135 108.127 247.203 107.237 247.202 107.237 C 247.2 107.237 221.87 132.575 190.912 163.544 M 280.405 202.448 L 297.2 219.241 L 297.2 210.545 C 297.2 195.506 296.246 196.446 311.485 196.446 C 323.43 196.446 323.434 196.447 324.979 198.52 L 325.619 199.378 L 325.699 235.853 C 325.787 276.515 325.932 273.693 323.687 275.089 C 322.601 275.764 322.379 275.779 312.181 275.868 C 296.345 276.007 297.2 276.825 297.2 261.527 L 297.2 252.679 L 280.253 269.624 L 263.307 286.568 L 246.591 269.849 L 229.874 253.13 L 229.722 262.988 C 229.509 276.805 230.467 275.93 215.57 275.93 C 204.855 275.93 204.08 275.842 202.588 274.457 C 201.098 273.074 201.118 273.638 201.213 235.45 L 201.303 199.378 L 201.943 198.52 C 203.455 196.491 203.65 196.457 214.292 196.348 C 230.443 196.183 229.722 195.543 229.722 210.03 L 229.722 218.938 L 246.363 202.297 C 255.516 193.145 263.141 185.656 263.308 185.656 C 263.474 185.656 271.168 193.213 280.405 202.448 M 195.606 238.924 L 195.683 264.379 L 188.939 264.379 C 181.429 264.379 180.273 264.132 179.184 262.287 C 178.452 261.048 178.367 217.192 179.094 215.786 C 180.182 213.683 181.701 213.334 189.449 213.409 L 195.528 213.468 L 195.606 238.924 M 346.125 214.086 C 348.55 215.511 348.415 214.046 348.415 239 C 348.415 267.103 349.532 264.341 338.157 264.365 L 331.242 264.379 L 331.242 239.05 C 331.242 225.119 331.344 213.619 331.469 213.494 C 332.044 212.919 345.031 213.444 346.125 214.086 M 340.664 313.484 C 304.524 349.635 286.362 368.005 286.865 367.899 C 339.678 356.703 376.806 323.362 391.895 273.581 C 393.13 269.507 395.563 258.908 395.263 258.908 C 395.241 258.908 370.672 283.467 340.664 313.484 M 131.546 259.768 C 131.546 259.99 132.023 262.384 132.607 265.087 C 142.377 310.375 176.656 348.432 220.756 362.951 C 227.719 365.244 238.544 367.974 239.461 367.668 C 239.622 367.615 215.407 343.224 185.65 313.468 C 155.893 283.711 131.546 259.546 131.546 259.768" stroke="none" fill="#1c1c24" fill-rule="evenodd"/>
  </g>
  <g transform="matrix(1, 0, 0, 1, -0.52, 35.445805)">
    <path id="path-1" d="M 222.205 23.322 C 163.371 33.292 114.577 81.52 103.68 140.473 C 102.62 146.214 102.641 146.595 104.037 146.595 C 104.532 146.595 105.909 146.847 107.099 147.157 L 109.263 147.718 L 110.998 146.117 C 111.953 145.237 112.647 144.29 112.541 144.01 C 112.432 143.732 112.81 141.354 113.379 138.727 C 123.59 91.495 158.55 52.676 204.641 37.389 C 210.238 35.533 219.77 33.146 222.365 32.951 C 225.544 32.711 227.748 30.291 227.108 27.744 C 226.854 26.737 226.647 25.377 226.647 24.722 C 226.647 23.111 225.527 22.759 222.205 23.322 M 270.334 23.526 C 270.068 23.791 269.849 24.505 269.849 25.109 C 269.849 25.715 269.639 27.12 269.383 28.235 C 268.705 31.165 270.199 32.896 273.498 33.006 C 276.253 33.099 286.648 35.757 293.067 38.011 C 333.484 52.207 364.991 84.084 378.476 124.42 C 380.504 130.491 382.903 140.05 383.095 142.829 C 383.223 144.675 383.428 145.09 384.872 146.392 L 386.504 147.868 L 389.652 147.094 L 392.799 146.321 L 392.683 144.54 C 392.62 143.561 392.106 140.488 391.542 137.711 C 382.182 91.636 349.367 51.649 305.558 32.93 C 293.092 27.606 271.911 21.948 270.334 23.526 M 231.086 133.879 C 221.871 143.097 214.149 150.571 213.927 150.485 C 213.662 150.383 213.56 156.265 213.633 167.763 L 213.742 185.195 L 230.495 201.931 C 239.71 211.137 247.451 218.736 247.697 218.818 C 247.943 218.903 255.732 211.383 265.008 202.111 C 274.282 192.838 282.027 185.348 282.219 185.468 C 282.414 185.589 282.52 178.077 282.46 168.442 L 282.349 151.199 L 265.395 134.261 C 256.07 124.944 248.306 117.275 248.14 117.22 C 247.975 117.163 240.301 124.661 231.086 133.879 M 276.916 168.197 L 276.916 179.906 L 248.046 179.906 L 219.176 179.906 L 219.069 168.606 C 219.009 162.391 219.05 157.074 219.159 156.793 C 219.315 156.384 225.165 156.301 248.136 156.384 L 276.916 156.488 L 276.916 168.197 M 106.928 189.677 C 105.595 189.995 104.119 190.331 103.647 190.425 L 102.789 190.595 L 103.535 194.762 C 114.051 253.379 160.838 300.841 219.236 312.128 C 226.565 313.544 226.325 313.62 227.028 309.682 L 227.542 306.81 L 225.883 305.121 C 224.568 303.781 223.909 303.416 222.709 303.365 C 220.673 303.278 208.891 300.288 204.076 298.636 C 162.548 284.393 129.916 251.312 116.834 210.194 C 115.228 205.144 112.798 195.338 112.659 193.34 C 112.564 191.977 110.325 188.862 109.574 189.045 C 109.451 189.076 108.261 189.36 106.928 189.677 M 384.43 190.16 C 383.388 191.074 383.062 191.647 383.193 192.332 C 383.427 193.551 381.712 201.124 379.654 207.969 C 365.377 255.44 325.553 292.145 276.914 302.662 C 274.102 303.27 272.041 303.538 271.903 303.317 C 271.772 303.108 270.996 303.711 270.174 304.655 L 268.683 306.373 L 269.266 308.311 C 269.587 309.378 269.849 310.654 269.849 311.146 C 269.849 313.16 270.668 313.233 277.472 311.834 C 335.191 299.959 380.543 254.503 391.777 197.263 C 393.178 190.119 393.271 190.497 389.972 189.815 C 388.64 189.539 387.165 189.223 386.696 189.115 C 386.128 188.984 385.373 189.331 384.43 190.16 M 225.435 357.715 C 220.226 358.846 220.589 356.327 220.589 391.321 L 220.589 421.535 L 221.834 422.952 C 223.672 425.045 224.755 425.194 238.153 425.188 C 258.542 425.181 263.667 422.638 265.98 411.385 C 268.243 400.377 266.105 393.387 259.02 388.618 C 258.95 388.571 259.736 387.687 260.769 386.654 C 269.226 378.197 265.167 361.479 253.897 358.347 C 251.247 357.61 228.266 357.1 225.435 357.715 M 282.569 357.548 C 282.347 357.632 281.48 357.815 280.643 357.956 C 279.796 358.097 278.486 358.767 277.697 359.459 L 276.276 360.707 L 276.401 385.584 C 276.541 413.316 276.454 412.435 279.481 416.835 C 283.755 423.047 289.413 425.41 299.932 425.379 C 312.925 425.339 319.926 420.839 322.527 410.853 C 323.445 407.329 323.459 361.218 322.543 359.909 C 320.553 357.069 312.244 356.779 309.208 359.445 L 307.804 360.677 L 307.804 382.419 C 307.804 397.089 307.656 404.855 307.346 406.295 C 305.94 412.855 295.89 414.06 292.866 408.03 L 291.856 406.018 L 291.654 383.206 C 291.542 370.657 291.293 360.144 291.097 359.841 C 290.291 358.593 284.153 356.941 282.569 357.548 M 340.04 357.719 C 334.974 358.795 335.228 356.935 335.355 391.838 C 335.477 425.769 335.175 422.823 338.693 424.438 C 340.867 425.437 359.555 425.552 364.599 424.598 C 373.408 422.934 378.962 417.752 380.691 409.585 C 381.525 405.657 381.535 376.957 380.706 373.045 C 379.076 365.353 373.549 359.929 365.544 358.164 C 362.971 357.597 342.314 357.236 340.04 357.719 M 398.451 357.602 C 398.007 357.71 397.238 357.885 396.743 357.991 C 396.248 358.096 395.202 358.744 394.421 359.43 L 393.001 360.677 L 393.001 391.292 L 393.001 421.904 L 394.232 423.138 C 396.251 425.157 397.346 425.291 410.175 425.09 C 419.313 424.948 422.352 424.767 424.072 424.26 C 431.996 421.927 436.457 417.245 438.34 409.288 C 439.194 405.685 439.01 375.586 438.116 372.349 C 436.091 365.014 431.129 360.23 423.59 358.336 C 421.105 357.713 400.47 357.11 398.451 357.602 M 453.162 357.906 C 446.154 359.515 444.465 362.874 447.851 368.467 C 448.925 370.244 453.24 377.33 457.44 384.215 L 465.074 396.731 L 465.275 409.45 C 465.386 416.445 465.626 422.399 465.807 422.68 C 467.802 425.762 478.092 425.762 480.086 422.68 C 480.268 422.399 480.51 416.445 480.622 409.45 L 480.827 396.731 L 490.413 380.926 C 497.47 369.292 500 364.79 500 363.868 C 500 359.427 489.648 355.543 486.318 358.732 C 485.648 359.374 482.412 364.871 479.126 370.946 C 475.842 377.023 473.062 381.99 472.949 381.987 C 472.837 381.984 470.02 376.978 466.689 370.864 C 459.086 356.914 458.777 356.618 453.162 357.906 M 247.191 372.155 C 249.152 373.528 249.831 377.23 248.598 379.83 C 247.577 381.98 246.345 382.398 241 382.398 L 236.336 382.398 L 236.336 376.946 L 236.336 371.495 L 241.294 371.495 C 245.223 371.495 246.447 371.633 247.191 372.155 M 362.149 372.32 C 365.331 373.861 365.342 373.928 365.342 391.482 C 365.342 411.302 365.434 411.112 355.752 411.409 L 351.009 411.554 L 351.009 391.526 L 351.009 371.495 L 355.726 371.495 C 359.652 371.495 360.729 371.634 362.149 372.32 M 419.655 372.242 C 420.461 372.67 421.496 373.75 422.072 374.766 L 423.081 376.542 L 423.212 389.968 C 423.408 410.333 423.092 411.031 413.491 411.39 L 408.748 411.569 L 408.748 391.532 L 408.748 371.495 L 413.498 371.495 C 417.343 371.495 418.517 371.637 419.655 372.242 M 247.613 395.623 C 250.028 396.854 250.613 398.084 250.799 402.329 C 251.12 409.676 249.636 411.119 241.486 411.393 L 236.336 411.564 L 236.336 403.239 L 236.336 394.914 L 241.283 394.916 C 245.194 394.916 246.518 395.063 247.613 395.623" stroke="none" fill="#44aba3" fill-rule="evenodd" style=""/>
    <path id="path-2" d="M 244.502 0.633 C 244.217 1.141 244.021 1.205 243.807 0.859 C 243.589 0.505 243.293 0.573 242.7 1.11 C 242.254 1.512 241.819 1.797 241.731 1.743 C 241.644 1.686 241.48 1.664 241.37 1.692 C 241.258 1.719 241.031 1.775 240.865 1.818 C 240.075 2.016 236.49 3.908 236.227 4.265 C 236.063 4.486 235.928 4.503 235.925 4.299 C 235.921 4.095 235.27 4.641 234.478 5.509 C 233.685 6.38 233.175 6.82 233.344 6.486 C 233.609 5.961 233.557 5.956 232.958 6.443 C 232.577 6.751 232.359 7.099 232.473 7.213 C 232.836 7.576 231.811 8.505 231.046 8.505 C 230.525 8.505 230.358 8.744 230.47 9.324 C 230.557 9.774 230.455 10.035 230.244 9.905 C 230.034 9.775 229.862 9.862 229.862 10.097 C 229.862 10.332 229.862 10.614 229.862 10.726 C 229.862 10.836 229.485 11.305 229.023 11.766 C 228.562 12.228 228.283 12.863 228.404 13.179 C 228.527 13.496 228.439 13.753 228.21 13.753 C 227.982 13.753 227.9 13.922 228.027 14.13 C 228.156 14.337 228.072 14.622 227.842 14.763 C 227.614 14.905 227.522 15.178 227.641 15.369 C 227.759 15.56 227.679 15.826 227.463 15.96 C 227.247 16.093 227.173 16.469 227.298 16.796 C 227.422 17.122 227.303 17.388 227.032 17.388 C 226.722 17.388 226.624 17.718 226.769 18.276 C 226.896 18.763 226.807 19.395 226.571 19.681 C 226.056 20.303 226.252 21.902 227.672 28.622 C 228.028 30.31 110.338 148.603 108.865 148.037 C 104.994 146.548 99.064 145.866 98.359 146.83 C 98.067 147.229 97.829 147.34 97.829 147.076 C 97.829 146.438 97.208 146.466 96.541 147.133 C 96.246 147.427 95.769 147.591 95.482 147.496 C 95.196 147.399 94.278 147.794 93.446 148.37 C 92.611 148.949 91.629 149.422 91.259 149.422 C 90.892 149.422 90.388 149.796 90.144 150.254 C 89.797 150.9 89.572 150.985 89.148 150.633 C 88.722 150.279 88.498 150.365 88.152 151.01 C 87.907 151.468 87.826 151.845 87.972 151.845 C 88.118 151.845 88.015 152.11 87.744 152.437 C 87.475 152.762 87.051 152.989 86.806 152.942 C 86.56 152.893 86.35 153.065 86.339 153.324 C 86.317 153.873 85.807 154.447 85.278 154.518 C 85.074 154.546 84.737 154.592 84.526 154.62 C 84.319 154.647 84.216 155.03 84.301 155.47 C 84.39 155.933 84.254 156.23 83.974 156.177 C 83.71 156.125 83.495 156.356 83.495 156.689 C 83.495 157.022 83.162 157.627 82.756 158.033 C 82.351 158.439 82.119 159.029 82.24 159.345 C 82.36 159.661 82.272 159.92 82.046 159.92 C 81.816 159.92 81.734 160.089 81.862 160.294 C 81.99 160.502 81.907 160.787 81.678 160.928 C 81.447 161.071 81.357 161.342 81.475 161.534 C 81.593 161.725 81.504 161.999 81.274 162.139 C 81.043 162.282 80.961 162.567 81.089 162.774 C 81.217 162.981 81.175 163.377 80.997 163.654 C 80.637 164.215 80.55 164.719 80.216 168.109 C 80.08 169.501 80.158 170.652 80.411 170.956 C 80.645 171.237 80.732 171.868 80.604 172.357 C 80.458 172.913 80.556 173.244 80.866 173.244 C 81.139 173.244 81.258 173.511 81.133 173.836 C 81.008 174.163 81.082 174.539 81.298 174.672 C 81.514 174.806 81.593 175.071 81.475 175.263 C 81.357 175.455 81.437 175.72 81.654 175.853 C 81.868 175.987 81.932 176.392 81.793 176.755 C 81.626 177.192 81.697 177.317 82.008 177.125 C 82.308 176.939 82.394 177.048 82.247 177.431 C 82.121 177.759 82.351 178.358 82.756 178.764 C 83.162 179.169 83.495 179.775 83.495 180.108 C 83.495 180.442 83.735 180.664 84.028 180.603 C 84.324 180.542 84.46 180.658 84.336 180.861 C 84.209 181.064 84.537 181.513 85.062 181.858 C 85.648 182.241 85.999 182.843 85.966 183.413 C 85.941 183.925 86.144 184.366 86.421 184.396 C 86.698 184.425 87.018 184.494 87.128 184.549 C 87.24 184.605 87.488 184.674 87.679 184.701 C 87.872 184.728 88.593 185.355 89.284 186.094 C 89.974 186.834 90.725 187.322 90.953 187.18 C 91.181 187.04 91.368 187.127 91.368 187.375 C 91.368 187.624 91.55 187.715 91.772 187.578 C 91.994 187.44 92.176 187.531 92.176 187.779 C 92.176 188.028 92.358 188.118 92.58 187.982 C 92.802 187.844 92.984 187.935 92.984 188.183 C 92.984 188.432 93.164 188.522 93.387 188.385 C 93.609 188.248 93.791 188.283 93.791 188.462 C 93.791 188.641 94.27 188.816 94.852 188.85 C 95.437 188.885 96.041 189.117 96.197 189.37 C 96.352 189.621 96.76 189.718 97.101 189.587 C 97.464 189.448 97.825 189.611 97.965 189.976 C 98.241 190.695 102.173 190.88 103.386 190.232 C 103.772 190.025 105.087 189.675 106.307 189.453 C 107.53 189.232 108.859 188.921 109.263 188.766 C 109.961 188.494 213.136 290.927 224.302 302.976 L 227.971 306.935 L 227.267 309.841 C 226.316 313.764 226.057 316.496 226.575 317.12 C 226.81 317.403 226.904 318.012 226.781 318.476 C 226.66 318.939 226.751 319.435 226.983 319.579 C 227.214 319.722 227.302 320.106 227.176 320.431 C 227.052 320.757 227.145 321.023 227.383 321.023 C 227.621 321.023 227.713 321.296 227.585 321.63 C 227.457 321.963 227.565 322.235 227.824 322.235 C 228.083 322.235 228.185 322.413 228.052 322.627 C 227.745 323.123 228.935 325.466 229.492 325.466 C 229.722 325.466 229.792 325.655 229.65 325.885 C 229.509 326.116 230.078 326.934 230.916 327.702 C 231.756 328.471 232.287 329.099 232.098 329.099 C 231.91 329.099 232.08 329.458 232.477 329.897 C 232.875 330.336 233.337 330.611 233.504 330.507 C 233.672 330.404 233.994 330.545 234.223 330.82 C 234.629 331.31 234.708 331.546 234.708 332.295 C 234.708 332.496 235.025 332.613 235.415 332.553 C 235.802 332.494 236.212 332.561 236.322 332.706 C 236.605 333.071 241.371 335.155 241.925 335.155 C 242.174 335.155 242.379 335.35 242.379 335.587 C 242.379 335.825 242.719 335.91 243.139 335.778 C 243.618 335.625 243.986 335.764 244.135 336.153 C 244.487 337.069 251.984 337.06 252.335 336.143 C 252.472 335.786 252.839 335.614 253.182 335.745 C 253.516 335.873 254.036 335.771 254.342 335.517 C 254.646 335.264 254.898 335.216 254.901 335.41 C 254.905 335.603 255.057 335.526 255.24 335.236 C 255.424 334.948 255.966 334.683 256.445 334.647 C 256.925 334.609 257.318 334.426 257.318 334.239 C 257.318 334.051 257.5 334.01 257.722 334.147 C 257.944 334.285 258.126 334.193 258.126 333.946 C 258.126 333.697 258.308 333.606 258.53 333.743 C 258.752 333.881 258.933 333.801 258.933 333.566 C 258.933 333.331 259.069 333.159 259.237 333.186 C 260.038 333.312 260.572 333.098 260.35 332.737 C 260.213 332.518 260.359 332.437 260.677 332.559 C 261.033 332.696 261.335 332.449 261.478 331.908 C 261.602 331.429 261.887 331.149 262.109 331.285 C 262.33 331.423 262.628 331.348 262.768 331.119 C 262.911 330.889 263.176 330.793 263.357 330.907 C 263.846 331.208 264.788 329.912 264.788 328.936 C 264.788 328.471 265.015 328.068 265.292 328.039 C 265.571 328.011 266 327.966 266.25 327.939 C 266.57 327.904 266.556 327.71 266.205 327.287 C 265.801 326.801 265.829 326.64 266.356 326.437 C 266.712 326.301 266.9 326.021 266.773 325.817 C 266.648 325.612 266.694 325.471 266.877 325.504 C 268.08 325.712 269.253 324.059 268.625 323.043 C 268.444 322.75 268.445 322.132 268.628 321.667 C 269.416 319.671 269.552 319.171 269.475 318.535 C 269.429 318.168 269.583 317.748 269.816 317.604 C 270.338 317.281 270.37 314.049 269.867 312.373 C 268.309 307.182 268.186 306.498 268.656 305.588 C 269.172 304.59 379.055 194.429 383.223 190.733 L 385.776 188.469 L 389.279 189.389 C 393.977 190.625 398.143 190.911 398.485 190.021 C 398.645 189.601 399.003 189.456 399.494 189.611 C 399.943 189.755 400.254 189.659 400.254 189.378 C 400.254 189.118 400.527 189.009 400.859 189.137 C 401.191 189.265 401.465 189.174 401.465 188.935 C 401.465 188.696 401.748 188.61 402.097 188.743 C 402.786 189.008 405.099 187.976 405.099 187.403 C 405.099 187.209 405.493 187.151 405.974 187.277 C 406.692 187.464 406.799 187.374 406.57 186.778 C 406.335 186.163 406.387 186.129 406.906 186.561 C 407.333 186.914 407.536 186.931 407.572 186.618 C 407.6 186.368 407.645 185.936 407.673 185.659 C 407.701 185.382 408.112 185.155 408.59 185.155 C 409.774 185.155 411.205 183.774 411.067 182.763 C 411.004 182.307 411.179 181.909 411.458 181.878 C 411.735 181.848 412.133 181.801 412.343 181.773 C 412.552 181.745 412.656 181.368 412.572 180.934 C 412.477 180.434 412.692 180.058 413.16 179.911 C 413.64 179.758 413.83 179.413 413.701 178.921 C 413.567 178.406 413.773 178.082 414.352 177.897 C 414.991 177.696 415.111 177.467 414.837 176.978 C 414.604 176.562 414.677 175.75 415.035 174.735 C 415.344 173.859 415.597 172.722 415.597 172.208 C 415.597 171.693 415.779 171.161 416.001 171.023 C 416.546 170.685 416.516 166.093 415.965 165.751 C 415.725 165.603 415.625 165.102 415.747 164.638 C 415.868 164.176 415.819 163.606 415.638 163.373 C 414.937 162.465 414.484 160.45 414.838 159.816 C 415.111 159.332 414.988 159.101 414.352 158.9 C 413.788 158.72 413.567 158.388 413.694 157.904 C 413.822 157.414 413.556 157.029 412.882 156.721 C 412.058 156.347 411.968 156.16 412.374 155.669 C 412.783 155.178 412.725 155.074 412.036 155.074 C 411.087 155.074 410.564 154.433 410.556 153.257 C 410.552 152.682 410.278 152.449 409.606 152.449 C 409.087 152.449 408.29 151.994 407.836 151.441 C 407.382 150.886 406.853 150.476 406.66 150.532 C 406.469 150.587 406.311 150.451 406.311 150.23 C 406.311 150.008 406.173 149.853 406.007 149.887 C 405.841 149.922 404.658 149.471 403.381 148.884 C 402.103 148.295 400.975 147.858 400.874 147.911 C 400.775 147.964 400.454 147.683 400.164 147.286 C 399.287 146.087 394.591 145.9 391.522 146.941 C 390.163 147.403 388.29 147.902 387.362 148.051 L 385.673 148.321 L 329.732 92.444 C 298.964 61.712 272.561 35.185 271.058 33.494 L 268.324 30.422 L 268.917 27.842 C 269.243 26.423 269.674 24.704 269.874 24.021 C 270.362 22.363 270.338 19.515 269.833 19.205 C 269.61 19.066 269.54 18.511 269.675 17.969 C 269.832 17.346 269.75 16.984 269.451 16.984 C 269.191 16.984 269.099 16.791 269.243 16.559 C 269.649 15.904 269.072 14.082 268.561 14.399 C 268.246 14.593 268.236 14.459 268.53 13.936 C 269.224 12.697 268.202 11.064 266.877 11.293 C 266.694 11.326 266.648 11.185 266.773 10.98 C 266.9 10.776 266.72 10.5 266.375 10.368 C 266.029 10.234 265.847 9.963 265.97 9.763 C 266.093 9.564 265.764 9.119 265.238 8.775 C 264.652 8.391 264.303 7.79 264.334 7.219 C 264.361 6.707 264.157 6.265 263.879 6.236 C 263.602 6.207 263.284 6.139 263.172 6.082 C 263.062 6.026 262.814 5.959 262.621 5.931 C 262.43 5.902 261.707 5.276 261.018 4.537 C 260.327 3.799 259.577 3.309 259.348 3.45 C 259.12 3.592 258.933 3.504 258.933 3.255 C 258.933 3.008 258.752 2.916 258.53 3.054 C 258.308 3.191 258.126 3.1 258.126 2.851 C 258.126 2.605 257.959 2.504 257.754 2.629 C 257.551 2.756 257.087 2.563 256.726 2.202 C 256.364 1.84 255.958 1.656 255.823 1.791 C 255.688 1.927 255.331 1.836 255.034 1.588 C 254.736 1.341 254.491 1.286 254.491 1.468 C 254.491 1.649 254.245 1.459 253.945 1.049 C 253.129 -0.07 245.093 -0.424 244.502 0.633 M 233.995 37.885 C 242.059 45.187 253.478 45.48 261.759 38.599 C 262.982 37.586 264.205 36.803 264.478 36.863 C 265.078 36.993 380.064 151.79 380.064 152.257 C 380.064 152.438 379.232 153.555 378.214 154.738 C 371.488 162.562 371.504 174.533 378.251 182.131 C 379.249 183.253 380.064 184.301 380.064 184.458 C 380.064 184.961 264.812 300.029 264.31 300.029 C 264.044 300.029 262.954 299.27 261.885 298.343 C 254.155 291.636 241.785 291.857 234.075 298.841 L 231.836 300.868 L 174.018 243.282 C 142.218 211.612 116.14 185.427 116.065 185.098 C 115.99 184.769 116.835 183.54 117.941 182.371 C 125.238 174.656 125.159 162.255 117.763 154.21 C 116.533 152.871 115.587 151.708 115.661 151.626 C 117.469 149.615 231.357 35.961 231.567 35.961 C 231.735 35.961 232.828 36.827 233.995 37.885 M 186.589 128.713 C 184.599 129.947 184.64 129.134 184.64 168.236 C 184.64 208.902 184.523 207.022 187.109 207.924 C 188.853 208.532 208.69 208.532 210.432 207.924 C 211.139 207.677 211.961 206.997 212.259 206.411 C 213.019 204.915 213.475 173.539 213.086 149.323 L 212.787 130.651 L 211.473 129.336 L 210.157 128.021 L 198.912 128.032 C 189.154 128.04 187.525 128.131 186.589 128.713 M 284.591 129.336 L 283.277 130.65 L 282.98 149.475 C 282.816 159.828 282.816 176.725 282.981 187.022 L 283.279 205.746 L 284.592 207.058 L 285.906 208.372 L 296.888 208.372 C 309.156 208.372 310.178 208.19 310.992 205.856 C 311.64 203.998 311.591 131.658 310.941 130.232 C 309.992 128.15 309.189 128.021 297.07 128.021 L 285.906 128.021 L 284.591 129.336 M 163.365 146.166 C 161.278 147.448 161.223 148.095 161.246 171.224 C 161.271 198.87 160.491 196.864 171.243 196.864 L 177.977 196.864 L 177.977 171.224 L 177.977 145.585 L 171.315 145.48 C 165.299 145.385 164.527 145.453 163.365 146.166 M 318.153 145.653 C 318.005 145.8 317.884 157.445 317.884 171.528 L 317.884 197.134 L 324.719 197 C 335.598 196.784 334.791 198.849 334.818 171.224 C 334.84 148.092 334.784 147.445 332.698 146.173 C 331.395 145.378 318.876 144.931 318.153 145.653 M 219.363 168.197 L 219.363 179.704 L 248.032 179.704 L 276.7 179.704 L 276.7 168.197 L 276.7 156.689 L 248.032 156.689 L 219.363 156.689 L 219.363 168.197 M 57.652 357.769 C 57.54 357.949 56.55 358.327 55.452 358.609 C 54.232 358.921 53.555 359.29 53.713 359.554 C 53.855 359.793 53.679 359.75 53.32 359.46 C 52.76 359.006 52.65 359.059 52.537 359.846 C 52.451 360.435 52.042 360.847 51.395 361 C 50.458 361.219 50.383 361.414 50.353 363.723 C 50.332 365.261 50.472 366.115 50.718 365.964 C 50.936 365.828 50.997 365.911 50.851 366.148 C 50.515 366.689 50.964 367.926 51.399 367.656 C 51.577 367.547 51.62 367.852 51.494 368.333 C 51.31 369.036 51.401 369.158 51.957 368.943 C 52.368 368.787 52.548 368.841 52.4 369.078 C 52.265 369.297 52.347 369.476 52.583 369.476 C 52.818 369.476 53.009 369.667 53.009 369.897 C 53.009 370.129 53.366 370.702 53.803 371.171 C 54.24 371.639 54.502 372.175 54.386 372.365 C 54.269 372.553 54.365 372.707 54.6 372.707 C 54.835 372.707 55.007 372.842 54.98 373.01 C 54.858 373.783 55.063 374.349 55.39 374.146 C 55.746 373.926 56.43 375.041 56.303 375.635 C 56.269 375.801 56.421 375.938 56.643 375.938 C 56.865 375.938 57.027 376.073 57 376.24 C 56.877 377.016 57.082 377.578 57.414 377.373 C 57.615 377.249 57.677 377.541 57.551 378.023 C 57.367 378.728 57.458 378.847 58.013 378.635 C 58.423 378.477 58.604 378.531 58.458 378.769 C 58.323 378.988 58.404 379.167 58.639 379.167 C 58.874 379.167 59.021 379.307 58.966 379.478 C 58.909 379.649 59.267 380.222 59.758 380.75 C 60.252 381.28 60.558 381.867 60.441 382.055 C 60.325 382.243 60.434 382.398 60.682 382.398 C 60.929 382.398 61.025 382.574 60.892 382.787 C 60.761 383.001 61.022 383.546 61.473 383.997 C 61.927 384.45 62.296 385.001 62.296 385.223 C 62.296 385.446 62.478 385.627 62.7 385.627 C 62.922 385.627 63.082 385.764 63.056 385.93 C 62.855 387.202 63.241 388.097 64.215 388.607 C 64.825 388.926 65.28 389.295 65.224 389.426 C 64.991 389.976 65.149 390.503 65.484 390.297 C 65.684 390.174 65.956 390.361 66.091 390.712 C 66.354 391.4 65.885 392.524 65.289 392.629 C 65.087 392.665 64.947 392.919 64.977 393.194 C 65.007 393.469 64.871 393.595 64.674 393.472 C 64.341 393.268 64.182 393.804 64.416 394.337 C 64.472 394.464 64.195 394.748 63.802 394.968 C 63.409 395.187 63.193 395.538 63.322 395.747 C 63.45 395.956 63.363 396.126 63.128 396.126 C 62.893 396.126 62.7 396.398 62.7 396.731 C 62.7 397.065 62.489 397.338 62.23 397.338 C 61.97 397.338 61.874 397.452 62.016 397.595 C 62.308 397.887 60.797 400.196 59.987 400.693 C 59.693 400.874 59.558 401.191 59.687 401.399 C 59.816 401.608 59.729 401.778 59.494 401.778 C 59.259 401.778 59.066 402.052 59.066 402.384 C 59.066 402.718 58.885 402.989 58.663 402.989 C 58.441 402.989 58.259 403.25 58.259 403.569 C 58.259 403.886 57.895 404.263 57.451 404.403 C 56.488 404.709 55.686 406.056 55.993 406.852 C 56.114 407.169 55.993 407.379 55.721 407.326 C 55.451 407.273 55.255 407.545 55.286 407.931 C 55.317 408.317 55.179 408.534 54.984 408.412 C 54.658 408.211 54.456 408.78 54.576 409.551 C 54.603 409.717 54.444 409.854 54.22 409.854 C 53.998 409.854 53.816 410.127 53.816 410.459 C 53.816 410.792 53.626 411.065 53.391 411.065 C 53.154 411.065 53.073 411.245 53.208 411.465 C 53.356 411.701 53.174 411.756 52.763 411.598 C 52.214 411.388 52.118 411.506 52.293 412.178 C 52.462 412.823 52.367 412.968 51.889 412.784 C 51.411 412.601 51.319 412.747 51.491 413.405 C 51.629 413.937 51.537 414.234 51.252 414.181 C 50.998 414.133 50.815 414.41 50.844 414.796 C 50.876 415.195 50.717 415.385 50.473 415.235 C 50.208 415.07 50.144 415.224 50.304 415.643 C 50.445 416.012 50.431 416.314 50.272 416.314 C 50.112 416.314 49.966 417.132 49.947 418.132 C 49.928 419.13 50.064 419.948 50.25 419.948 C 50.435 419.948 50.552 420.084 50.506 420.251 C 50.37 420.772 53.236 423.583 53.903 423.583 C 54.253 423.583 54.651 423.875 54.788 424.233 C 54.948 424.647 55.332 424.808 55.841 424.676 C 56.283 424.56 56.643 424.632 56.643 424.836 C 56.643 425.042 57.36 425.093 58.257 424.949 C 59.152 424.806 60.095 424.871 60.377 425.095 C 60.905 425.518 63.628 423.029 63.156 422.557 C 63.029 422.431 63.258 422.454 63.661 422.61 C 64.234 422.83 64.364 422.724 64.25 422.132 C 64.17 421.714 64.431 421.044 64.831 420.645 C 65.229 420.246 65.46 419.763 65.342 419.572 C 65.224 419.381 65.399 419.122 65.732 418.994 C 66.063 418.866 66.335 418.394 66.335 417.942 C 66.335 417.49 66.527 417.122 66.762 417.122 C 66.997 417.122 67.077 416.94 66.94 416.718 C 66.802 416.495 66.893 416.314 67.142 416.314 C 67.39 416.314 67.493 416.151 67.369 415.952 C 67.245 415.751 67.595 415.161 68.146 414.639 C 68.696 414.118 69.15 413.454 69.153 413.167 C 69.157 412.878 69.637 412.201 70.217 411.663 C 70.931 411.001 71.185 410.454 71.003 409.978 C 70.855 409.591 70.855 409.395 71.003 409.544 C 71.472 410.013 72.483 408.661 72.207 407.937 C 72.062 407.562 72.067 407.375 72.215 407.526 C 72.636 407.946 73.707 406.673 73.465 406.04 C 73.345 405.733 73.511 405.379 73.829 405.257 C 74.148 405.135 74.413 404.71 74.416 404.316 C 74.425 403.276 74.955 402.59 75.891 402.41 C 76.563 402.28 76.675 402.423 76.521 403.228 C 76.347 404.135 76.705 404.424 77.77 404.24 C 77.954 404.207 77.988 404.367 77.847 404.595 C 77.706 404.822 77.784 405.009 78.02 405.009 C 78.255 405.009 78.45 405.326 78.455 405.716 C 78.459 406.103 78.918 406.855 79.477 407.385 C 80.034 407.916 80.404 408.435 80.296 408.544 C 80.188 408.651 80.365 409.003 80.688 409.324 C 81.01 409.647 81.274 410.267 81.274 410.704 C 81.274 411.138 81.526 411.59 81.834 411.71 C 82.178 411.842 82.31 412.254 82.175 412.775 C 81.996 413.452 82.091 413.571 82.644 413.359 C 83.054 413.2 83.235 413.256 83.089 413.492 C 82.953 413.713 83.016 413.891 83.23 413.891 C 83.446 413.891 83.517 414.286 83.393 414.767 C 83.201 415.495 83.29 415.593 83.922 415.352 C 84.339 415.19 84.561 415.181 84.415 415.327 C 84.269 415.473 84.495 415.964 84.917 416.418 C 85.342 416.873 85.592 417.399 85.475 417.588 C 85.358 417.775 85.467 417.929 85.716 417.929 C 85.963 417.929 86.054 418.111 85.918 418.333 C 85.779 418.556 85.871 418.736 86.119 418.736 C 86.367 418.736 86.462 418.912 86.329 419.126 C 86.198 419.339 86.426 419.85 86.836 420.262 C 87.246 420.672 87.512 421.222 87.424 421.483 C 87.231 422.065 88.337 423.248 88.717 422.869 C 88.866 422.719 88.868 422.91 88.722 423.291 C 88.542 423.758 88.654 423.986 89.061 423.986 C 89.394 423.986 89.773 424.261 89.902 424.597 C 90.082 425.069 90.512 425.15 91.759 424.951 C 92.767 424.79 93.596 424.869 93.945 425.158 C 94.623 425.72 96.749 424.931 96.34 424.268 C 96.196 424.034 96.291 423.986 96.566 424.156 C 96.837 424.324 97.467 424.045 98.021 423.512 C 98.557 422.996 99.416 422.571 99.927 422.571 C 100.628 422.57 100.859 422.337 100.867 421.632 C 100.873 421.114 101.28 420.272 101.775 419.758 C 102.801 418.693 103 416.718 102.081 416.718 C 101.72 416.718 101.578 416.481 101.719 416.115 C 101.851 415.773 101.672 415.407 101.304 415.265 C 100.95 415.13 100.739 414.889 100.835 414.732 C 100.933 414.575 100.66 413.913 100.23 413.261 C 99.801 412.608 99.447 412.245 99.446 412.454 C 99.445 412.665 99.188 412.484 98.874 412.056 C 98.561 411.627 98.377 411.156 98.468 411.012 C 98.557 410.866 98.347 410.638 98.002 410.504 C 97.657 410.371 97.487 410.08 97.625 409.857 C 97.763 409.633 97.684 409.45 97.449 409.45 C 97.214 409.45 97.021 409.177 97.021 408.845 C 97.021 408.511 96.828 408.239 96.593 408.239 C 96.357 408.239 96.272 408.068 96.401 407.859 C 96.529 407.65 96.313 407.302 95.92 407.081 C 95.526 406.86 95.25 406.577 95.304 406.45 C 95.55 405.891 95.371 405.385 95.007 405.612 C 94.782 405.75 94.708 405.598 94.837 405.261 C 94.976 404.898 94.66 404.399 94.027 403.985 C 93.457 403.611 93.09 403.143 93.212 402.946 C 93.334 402.748 93.242 402.586 93.007 402.586 C 92.772 402.586 92.58 402.314 92.58 401.98 C 92.58 401.648 92.387 401.374 92.152 401.374 C 91.917 401.374 91.829 401.204 91.958 400.995 C 92.087 400.787 91.963 400.47 91.679 400.289 C 91.397 400.109 91.167 399.688 91.167 399.356 C 91.167 399.023 90.96 398.79 90.71 398.836 C 90.457 398.882 90.277 398.61 90.306 398.23 C 90.335 397.85 90.138 397.581 89.869 397.634 C 89.595 397.689 89.476 397.478 89.598 397.16 C 89.725 396.829 89.382 396.305 88.779 395.909 C 88.208 395.536 87.842 395.068 87.963 394.87 C 88.085 394.672 87.992 394.511 87.757 394.511 C 87.522 394.511 87.33 394.238 87.33 393.904 C 87.33 393.572 87.149 393.299 86.926 393.299 C 86.704 393.299 86.545 393.164 86.57 392.996 C 86.687 392.26 86.497 391.653 86.206 391.832 C 86.03 391.941 85.889 391.691 85.889 391.281 C 85.889 390.869 86.03 390.62 86.206 390.729 C 86.497 390.907 86.687 390.301 86.57 389.565 C 86.545 389.397 86.715 389.262 86.95 389.262 C 87.185 389.262 87.283 389.108 87.166 388.919 C 87.049 388.73 87.311 388.194 87.749 387.725 C 88.184 387.255 88.541 386.727 88.541 386.549 C 88.541 386.371 88.92 385.99 89.384 385.701 C 89.877 385.391 90.128 384.928 89.993 384.572 C 89.863 384.232 89.936 384.079 90.161 384.217 C 90.52 384.439 90.735 383.905 90.608 383.104 C 90.582 382.937 90.753 382.802 90.988 382.802 C 91.223 382.802 91.304 382.621 91.169 382.402 C 91.023 382.165 91.204 382.111 91.614 382.269 C 92.169 382.482 92.261 382.361 92.076 381.658 C 91.95 381.176 92.012 380.884 92.213 381.007 C 92.415 381.132 92.58 380.86 92.58 380.403 C 92.58 379.946 92.772 379.571 93.007 379.571 C 93.242 379.571 93.34 379.416 93.223 379.228 C 93.106 379.04 93.369 378.503 93.804 378.034 C 94.242 377.565 94.598 377.037 94.598 376.858 C 94.598 376.68 94.976 376.299 95.44 376.009 C 95.917 375.711 96.185 375.233 96.057 374.903 C 95.935 374.584 96.011 374.322 96.226 374.322 C 96.442 374.322 96.617 374.051 96.617 373.717 C 96.617 373.384 96.81 373.111 97.045 373.111 C 97.28 373.111 97.361 372.932 97.226 372.711 C 97.079 372.474 97.259 372.42 97.671 372.578 C 98.225 372.79 98.317 372.671 98.133 371.967 C 98.006 371.485 98.069 371.192 98.269 371.318 C 98.471 371.441 98.636 371.168 98.636 370.711 C 98.636 370.255 98.828 369.88 99.064 369.88 C 99.299 369.88 99.38 369.701 99.244 369.481 C 99.1 369.248 99.273 369.188 99.665 369.339 C 100.166 369.531 100.294 369.404 100.177 368.83 C 100.091 368.409 100.282 367.864 100.602 367.619 C 100.922 367.375 101.222 366.83 101.267 366.408 C 101.313 365.986 101.487 365.321 101.653 364.93 C 101.828 364.518 101.746 363.964 101.458 363.616 C 101.184 363.287 101.095 363.017 101.261 363.017 C 101.426 363.017 101.312 362.716 101.008 362.349 C 100.701 361.982 100.453 361.3 100.453 360.835 C 100.453 360.257 100.196 359.987 99.646 359.987 C 99.202 359.987 98.416 359.565 97.899 359.048 C 97.382 358.532 96.701 358.207 96.384 358.33 C 96.068 358.451 95.809 358.362 95.809 358.131 C 95.809 357.896 95.454 357.825 95.002 357.97 C 94.558 358.111 94.195 358.061 94.195 357.862 C 94.195 357.661 93.377 357.498 92.378 357.498 C 91.378 357.498 90.56 357.632 90.56 357.797 C 90.56 357.961 90.197 358 89.751 357.883 C 88.685 357.604 87.625 358.518 87.881 359.495 C 87.991 359.921 87.984 360.169 87.861 360.048 C 87.463 359.649 86.437 361.002 86.672 361.613 C 86.798 361.941 86.715 362.209 86.486 362.209 C 86.258 362.209 86.171 362.372 86.295 362.571 C 86.417 362.77 86.247 363.036 85.916 363.164 C 85.583 363.292 85.313 363.765 85.313 364.214 C 85.313 364.667 85.12 365.036 84.884 365.036 C 84.649 365.036 84.568 365.218 84.706 365.44 C 84.843 365.662 84.753 365.844 84.505 365.844 C 84.256 365.844 84.163 366.022 84.3 366.242 C 84.444 366.476 84.271 366.535 83.879 366.385 C 83.379 366.194 83.249 366.321 83.36 366.894 C 83.446 367.33 83.095 368.047 82.546 368.557 C 82.017 369.052 81.684 369.719 81.807 370.038 C 81.93 370.358 81.769 370.721 81.45 370.844 C 81.131 370.967 80.87 371.423 80.87 371.858 C 80.87 372.292 80.606 372.913 80.284 373.235 C 79.961 373.559 79.81 373.935 79.947 374.072 C 80.085 374.21 79.975 374.322 79.702 374.322 C 79.43 374.322 79.305 374.48 79.425 374.673 C 79.544 374.866 78.993 375.692 78.2 376.507 C 77.358 377.376 76.852 378.234 76.985 378.578 C 77.109 378.903 77.024 379.167 76.796 379.167 C 76.567 379.167 76.493 379.349 76.631 379.571 C 76.768 379.793 76.679 379.975 76.433 379.975 C 75.772 379.975 74.006 377.941 74.006 377.18 C 74.006 376.817 73.642 376.208 73.198 375.828 C 72.754 375.449 72.39 374.766 72.39 374.314 C 72.39 373.86 72.13 373.389 71.81 373.267 C 71.492 373.144 71.33 372.782 71.454 372.461 C 71.577 372.14 71.248 371.464 70.722 370.959 C 70.196 370.453 69.712 369.777 69.643 369.456 C 69.575 369.134 69.222 368.643 68.86 368.366 C 68.496 368.088 68.331 367.861 68.493 367.861 C 68.655 367.861 68.424 367.471 67.979 366.993 C 67.534 366.515 67.266 365.97 67.382 365.782 C 67.498 365.593 67.39 365.44 67.142 365.44 C 66.893 365.44 66.802 365.258 66.94 365.036 C 67.077 364.814 67.015 364.632 66.799 364.632 C 66.586 364.632 66.5 364.287 66.611 363.862 C 66.75 363.332 66.549 363.011 65.961 362.825 C 65.493 362.677 65.216 362.385 65.343 362.18 C 65.47 361.974 65.399 361.805 65.184 361.805 C 64.97 361.805 64.898 361.412 65.024 360.929 C 65.208 360.226 65.117 360.106 64.561 360.32 C 64.181 360.466 63.953 360.449 64.055 360.285 C 64.157 360.12 63.527 359.449 62.659 358.796 C 61.107 357.628 58.118 357.016 57.652 357.769 M 6.173 358.147 C 6.173 358.354 5.348 358.649 4.338 358.801 C 2.923 359.013 2.28 359.371 1.513 360.377 L 0.52 361.679 L 0.52 391.399 C 0.52 415.164 0.624 421.184 1.038 421.442 C 1.323 421.621 1.554 422.13 1.549 422.572 C 1.545 423.145 1.801 423.371 2.424 423.35 C 2.909 423.334 3.222 423.458 3.118 423.624 C 2.88 424.009 4.426 424.519 4.916 424.216 C 5.116 424.093 5.384 424.263 5.512 424.594 C 5.712 425.117 8.084 425.198 23.191 425.198 L 40.638 425.198 L 41.877 423.828 C 42.559 423.076 43.179 422.122 43.256 421.71 C 43.331 421.296 43.512 420.913 43.658 420.856 C 43.888 420.77 43.931 416.071 43.708 415.507 C 43.664 415.395 43.65 415.169 43.676 415.002 C 43.701 414.835 43.511 414.699 43.252 414.699 C 42.992 414.699 42.88 414.599 43.001 414.479 C 43.121 414.358 42.729 413.768 42.13 413.167 L 41.037 412.074 L 28.401 412.187 L 15.763 412.299 L 16.009 411.379 C 16.144 410.874 16.257 407.437 16.261 403.743 L 16.267 397.025 L 23.278 396.872 C 28.714 396.754 30.451 396.584 31.012 396.118 C 31.41 395.789 31.811 395.581 31.908 395.654 C 32.003 395.729 32.202 395.654 32.349 395.489 C 32.499 395.324 32.347 395.322 32.014 395.485 C 31.639 395.669 31.675 395.562 32.108 395.208 C 32.493 394.892 32.689 394.514 32.546 394.37 C 32.401 394.225 32.489 394.107 32.741 394.107 C 32.994 394.107 33.104 393.858 32.987 393.553 C 32.87 393.248 33.057 392.891 33.403 392.758 C 34.041 392.514 34.234 391.067 33.788 389.901 C 33.654 389.553 33.383 389.366 33.188 389.486 C 32.991 389.608 32.938 389.425 33.072 389.081 C 33.203 388.735 33.131 388.454 32.909 388.454 C 32.688 388.454 32.533 388.141 32.564 387.757 C 32.594 387.374 32.347 387.056 32.014 387.051 C 31.68 387.044 31.386 386.814 31.358 386.535 C 31.329 386.258 31.284 385.843 31.257 385.614 C 31.222 385.328 30.953 385.331 30.406 385.624 C 29.501 386.108 16.263 386.018 16.266 385.526 C 16.267 385.361 16.267 382.044 16.267 378.157 L 16.267 371.091 L 28.379 371.091 C 35.352 371.091 40.492 370.937 40.492 370.727 C 40.492 370.524 40.857 370.456 41.303 370.572 C 42.369 370.85 43.482 369.956 42.916 369.275 C 42.625 368.924 42.682 368.627 43.108 368.273 C 43.442 367.996 43.615 367.608 43.493 367.412 C 43.371 367.215 43.431 367.055 43.627 367.055 C 44.104 367.055 43.897 362.699 43.35 361.273 C 43.112 360.649 42.916 360.046 42.916 359.933 C 42.916 359.489 41.727 358.575 41.152 358.575 C 40.815 358.575 40.427 358.393 40.291 358.171 C 39.962 357.639 6.173 357.614 6.173 358.147 M 116.538 358.196 C 116.302 358.433 115.553 358.641 114.873 358.661 C 113.682 358.695 111.96 360.303 111.96 361.385 C 111.96 361.617 111.78 361.805 111.556 361.805 C 110.927 361.805 111.008 420.449 111.637 421.078 C 111.904 421.346 111.96 421.563 111.762 421.563 C 111.564 421.563 111.756 421.849 112.186 422.198 C 112.618 422.549 112.715 422.701 112.402 422.54 C 112.026 422.346 111.934 422.406 112.127 422.719 C 112.288 422.98 112.561 423.104 112.734 422.997 C 112.909 422.891 113.451 423.178 113.945 423.637 C 114.438 424.095 114.941 424.37 115.063 424.248 C 115.187 424.124 115.551 424.287 115.873 424.611 C 116.957 425.695 150.429 425.461 151.976 424.358 C 152.625 423.898 153.052 423.355 152.927 423.152 C 152.801 422.95 152.977 422.891 153.317 423.021 C 154.182 423.353 155.069 421.411 154.41 420.619 C 154.049 420.184 154.082 419.94 154.554 419.548 C 154.889 419.27 155.164 418.723 155.164 418.333 C 155.164 417.944 154.889 417.396 154.554 417.117 C 154.109 416.75 154.06 416.469 154.374 416.091 C 154.692 415.708 154.618 415.468 154.09 415.172 C 153.696 414.952 153.354 414.262 153.325 413.626 C 153.284 412.719 153.091 412.489 152.401 412.527 C 151.922 412.554 151.53 412.462 151.53 412.326 C 151.53 412.187 145.762 412.074 138.71 412.074 L 125.891 412.074 L 125.781 404.504 C 125.695 398.597 125.783 396.929 126.185 396.914 C 126.468 396.905 129.332 396.902 132.552 396.913 C 135.772 396.924 139.09 396.768 139.925 396.571 C 140.856 396.349 141.531 396.357 141.675 396.591 C 142.033 397.169 142.993 396.205 142.863 395.402 C 142.801 395.023 142.94 394.35 143.17 393.909 C 143.698 392.891 143.844 388.818 143.342 389.128 C 143.138 389.255 143.171 388.986 143.415 388.528 C 143.874 387.67 143.412 386.972 142.685 387.422 C 142.483 387.546 142.413 387.29 142.526 386.855 C 142.691 386.221 142.562 386.095 141.882 386.225 C 141.415 386.316 141.032 386.264 141.032 386.11 C 141.032 385.955 137.626 385.829 133.462 385.829 L 125.891 385.829 L 125.781 378.36 L 125.671 370.89 L 138.198 371.008 C 146.682 371.086 150.723 370.99 150.723 370.705 C 150.723 370.474 151.085 370.284 151.53 370.284 C 151.974 370.284 152.338 370.102 152.338 369.88 C 152.338 369.658 152.723 369.476 153.196 369.476 C 153.948 369.476 153.986 369.395 153.498 368.794 C 153.024 368.21 153.028 368.162 153.516 368.456 C 153.947 368.715 154.025 368.634 153.832 368.129 C 153.69 367.76 153.769 367.459 154.008 367.459 C 154.247 367.459 154.333 367.172 154.199 366.822 C 154.065 366.473 154.227 365.915 154.56 365.582 C 155.321 364.82 155.328 364.046 154.581 363.3 C 154.233 362.952 154.097 362.35 154.241 361.794 C 154.423 361.099 154.353 360.952 153.953 361.199 C 153.586 361.426 153.52 361.369 153.74 361.016 C 154.075 360.472 152.151 358.616 151.227 358.59 C 150.95 358.582 150.723 358.393 150.723 358.171 C 150.723 357.593 117.115 357.619 116.538 358.196 M 167.902 358.141 C 167.767 358.36 167.359 358.426 166.996 358.287 C 166.504 358.099 166.424 358.18 166.682 358.608 C 166.967 359.079 166.919 359.091 166.406 358.678 C 165.585 358.012 164.25 359.379 164.561 360.566 C 164.687 361.049 164.585 361.338 164.309 361.286 C 163.445 361.125 163.459 420.423 164.322 421.059 C 164.7 421.336 164.89 421.563 164.744 421.563 C 164.598 421.563 164.882 421.985 165.374 422.499 C 165.865 423.011 166.404 423.365 166.57 423.281 C 166.737 423.198 166.873 423.334 166.873 423.583 C 166.873 423.831 167.055 423.921 167.277 423.784 C 167.499 423.646 167.681 423.74 167.681 423.989 C 167.681 424.251 168.004 424.343 168.441 424.203 C 168.921 424.051 169.287 424.19 169.437 424.58 C 169.747 425.386 173.044 425.428 173.703 424.633 C 173.961 424.324 174.519 424.161 174.944 424.272 C 175.449 424.403 176.091 424.074 176.794 423.321 C 177.388 422.687 178.055 422.223 178.277 422.286 C 178.5 422.352 178.575 422.126 178.446 421.786 C 178.306 421.424 178.41 421.208 178.698 421.266 C 179.074 421.339 179.188 418.639 179.188 409.752 L 179.188 398.143 L 181.712 398.145 C 183.1 398.145 184.249 398.281 184.266 398.447 C 184.435 400.104 185.467 401.595 186.069 401.052 C 186.242 400.898 186.256 400.991 186.101 401.262 C 185.768 401.841 186.892 404.201 187.5 404.201 C 187.73 404.201 187.806 404.383 187.667 404.605 C 187.531 404.827 187.62 405.009 187.869 405.009 C 188.117 405.009 188.209 405.191 188.071 405.412 C 187.934 405.634 188.024 405.816 188.273 405.816 C 188.521 405.816 188.612 405.998 188.475 406.22 C 188.338 406.442 188.428 406.624 188.677 406.624 C 188.925 406.624 189.016 406.806 188.879 407.028 C 188.742 407.25 188.809 407.432 189.03 407.432 C 189.461 407.432 190.115 409.005 189.943 409.626 C 189.612 410.817 192.238 415.005 192.927 414.383 C 193.103 414.224 193.122 414.315 192.966 414.584 C 192.635 415.163 194.155 418.333 194.766 418.333 C 194.996 418.333 195.073 418.514 194.935 418.736 C 194.798 418.959 194.889 419.14 195.137 419.14 C 195.386 419.14 195.477 419.322 195.339 419.544 C 195.202 419.766 195.293 419.948 195.541 419.948 C 195.79 419.948 195.88 420.13 195.743 420.352 C 195.605 420.574 195.716 420.756 195.989 420.756 C 196.261 420.756 196.373 420.866 196.238 421 C 196.104 421.136 196.343 421.621 196.769 422.079 C 197.306 422.655 197.422 423.061 197.144 423.395 C 196.419 424.269 197.875 424.961 200.317 424.905 C 201.57 424.875 202.822 425.04 203.101 425.273 C 203.465 425.574 203.675 425.516 203.847 425.066 C 203.979 424.723 204.331 424.533 204.629 424.648 C 204.925 424.762 205.516 424.508 205.941 424.085 C 206.364 423.661 207.001 423.355 207.353 423.407 C 208.249 423.538 209.833 421.755 209.527 420.957 C 209.391 420.602 209.439 420.409 209.635 420.532 C 210.087 420.81 210.569 419.61 210.229 419.059 C 210.088 418.832 210.222 418.494 210.526 418.304 C 210.988 418.021 210.971 417.777 210.43 416.835 C 210.072 416.217 209.865 415.474 209.969 415.185 C 210.072 414.898 209.675 414.217 209.086 413.671 C 208.498 413.127 208.13 412.681 208.268 412.681 C 208.406 412.681 208.226 412.385 207.866 412.027 C 207.506 411.666 207.103 410.833 206.972 410.175 C 206.84 409.516 206.487 408.883 206.187 408.768 C 205.886 408.652 205.74 408.394 205.864 408.197 C 205.985 407.998 205.919 407.836 205.715 407.836 C 205.51 407.836 205.431 407.381 205.537 406.825 C 205.718 405.881 205.373 405.59 204.293 405.777 C 204.11 405.81 204.076 405.651 204.216 405.423 C 204.357 405.195 204.268 405.009 204.02 405.009 C 203.771 405.009 203.681 404.827 203.818 404.605 C 203.956 404.383 203.882 404.201 203.653 404.201 C 203.425 404.201 203.345 403.924 203.476 403.585 C 203.616 403.216 203.279 402.568 202.633 401.969 C 202.041 401.421 201.669 400.971 201.808 400.971 C 201.946 400.971 201.774 400.686 201.425 400.337 C 201.076 399.988 200.679 399.217 200.54 398.622 C 200.403 398.025 200.084 397.357 199.832 397.134 C 199.247 396.613 199.023 395.579 199.568 395.917 C 199.797 396.058 199.983 395.97 199.983 395.722 C 199.983 395.473 200.165 395.383 200.387 395.52 C 200.609 395.656 200.791 395.566 200.791 395.318 C 200.791 395.069 200.971 394.979 201.194 395.116 C 201.416 395.254 201.598 395.173 201.598 394.938 C 201.598 394.703 201.851 394.511 202.16 394.511 C 202.47 394.511 202.824 394.248 202.948 393.925 C 203.072 393.601 203.529 393.406 203.965 393.49 C 204.894 393.669 206.057 392.531 206.144 391.353 C 206.178 390.9 206.397 390.562 206.628 390.602 C 206.859 390.642 207.049 390.403 207.049 390.069 C 207.049 389.736 207.381 389.132 207.786 388.725 C 208.192 388.32 208.425 387.728 208.304 387.413 C 208.183 387.097 208.279 386.838 208.518 386.838 C 208.757 386.838 208.844 386.557 208.712 386.212 C 208.555 385.807 208.634 385.685 208.934 385.872 C 209.249 386.065 209.325 385.879 209.169 385.287 C 209.044 384.807 209.125 384.415 209.351 384.415 C 209.581 384.415 209.655 383.994 209.519 383.453 C 209.366 382.844 209.498 382.306 209.88 381.99 C 210.565 381.422 210.679 380.145 210.077 379.773 C 209.854 379.636 209.673 378.728 209.673 377.753 C 209.673 376.781 209.854 375.873 210.077 375.736 C 210.688 375.358 210.561 374.057 209.846 373.342 C 209.497 372.993 209.407 372.707 209.644 372.707 C 210.297 372.707 210.164 371.616 209.478 371.352 C 209.137 371.221 208.981 370.855 209.117 370.501 C 209.249 370.16 209.155 369.88 208.909 369.88 C 208.663 369.88 208.494 369.745 208.535 369.578 C 208.654 369.079 207.089 366.07 206.521 365.709 C 206.149 365.472 206.118 365.225 206.414 364.869 C 206.983 364.184 204.74 362.001 203.828 362.352 C 203.449 362.497 203.087 362.354 202.953 362.003 C 202.827 361.675 202.564 361.505 202.367 361.626 C 202.171 361.748 202.13 361.537 202.276 361.155 C 202.489 360.6 202.369 360.51 201.667 360.693 C 201.184 360.819 200.788 360.804 200.784 360.657 C 200.761 359.678 200.024 359.249 199.331 359.812 C 198.732 360.297 198.673 360.298 198.959 359.824 C 199.223 359.384 199.104 359.307 198.43 359.483 C 197.872 359.629 197.654 359.557 197.824 359.281 C 197.994 359.006 197.777 358.933 197.22 359.079 C 196.741 359.203 196.24 359.13 196.107 358.913 C 195.973 358.697 195.592 358.623 195.262 358.751 C 194.931 358.877 194.45 358.845 194.193 358.678 C 193.164 358.009 168.296 357.502 167.902 358.141 M 190.498 371.098 C 190.638 371.324 190.901 371.417 191.081 371.305 C 191.263 371.192 191.635 371.37 191.908 371.698 C 192.18 372.026 192.564 372.195 192.76 372.074 C 192.957 371.951 193.118 372.114 193.118 372.435 C 193.118 372.755 193.487 373.114 193.937 373.231 C 194.387 373.349 194.722 373.597 194.68 373.783 C 194.638 373.968 194.815 374.634 195.075 375.264 C 195.335 375.894 195.445 376.574 195.319 376.776 C 194.903 377.451 194.812 381.187 195.206 381.429 C 195.428 381.568 195.304 381.99 194.913 382.423 C 194.538 382.836 194.342 383.464 194.478 383.817 C 194.628 384.209 194.558 384.356 194.3 384.197 C 193.772 383.87 192.222 385.217 192.447 385.803 C 192.643 386.314 192.523 386.329 185.144 386.674 L 179.39 386.942 L 179.39 378.98 L 179.39 371.019 L 184.214 371.143 C 186.869 371.212 189.17 371.137 189.329 370.978 C 189.737 370.57 190.201 370.617 190.498 371.098" stroke="none" fill="#fafafa" fill-rule="evenodd" style=""/>
    <path id="path-3" d="M 219.58 34.022 C 210.565 36.246 207.945 36.978 203.227 38.594 C 160.861 53.112 127.599 88.489 115.861 131.515 C 114.029 138.231 113.028 142.936 113.359 143.269 C 113.631 143.54 223.012 34.385 223.012 33.842 C 223.012 33.448 221.607 33.52 219.58 34.022 M 272.676 33.842 C 272.676 34.238 381.803 143.365 382.2 143.365 C 383.594 143.365 378.172 124.199 374.033 114.494 C 357.202 75.052 323.084 45.824 281.615 35.324 C 274.692 33.572 272.676 33.238 272.676 33.842 M 173.683 94.236 L 116.482 151.585 L 118.496 153.835 C 125.836 162.034 125.896 174.43 118.634 182.903 L 116.758 185.092 L 174.195 242.53 L 231.632 299.968 L 233.682 298.16 C 241.67 291.108 253.244 290.874 262.165 297.583 L 264.375 299.244 L 321.622 241.998 C 353.107 210.512 378.868 184.547 378.868 184.296 C 378.868 184.046 378.602 183.62 378.277 183.351 C 370.935 177.255 370.701 162.806 377.806 154.131 L 379.404 152.179 L 322.016 94.789 L 264.626 37.4 L 263.504 38.305 C 254.107 45.879 241.821 46.018 233.653 38.646 C 232.51 37.613 231.42 36.795 231.23 36.827 C 231.041 36.858 205.145 62.692 173.683 94.236 M 265.004 133.068 C 274.218 142.283 281.894 149.826 282.062 149.826 C 282.23 149.826 282.367 145.692 282.367 140.64 C 282.368 126.565 281.706 127.141 297.71 127.302 C 310.061 127.429 310.302 127.478 311.605 130.226 C 312.537 132.188 312.584 203.954 311.655 206.177 C 310.525 208.882 309.171 209.16 297.105 209.169 C 281.78 209.182 282.368 209.718 282.367 195.753 C 282.367 190.701 282.23 186.568 282.062 186.568 C 281.894 186.568 274.31 194.018 265.207 203.122 C 256.103 212.227 248.381 219.677 248.046 219.677 C 247.711 219.677 239.989 212.227 230.886 203.122 C 221.782 194.018 214.198 186.568 214.03 186.568 C 213.862 186.568 213.726 190.674 213.726 195.693 C 213.726 209.634 214.249 209.162 198.786 209.162 C 187.007 209.162 185.789 208.913 184.523 206.243 C 183.593 204.283 183.475 132.518 184.397 130.311 C 185.577 127.487 185.934 127.416 198.786 127.416 C 214.566 127.416 213.726 126.678 213.726 140.525 C 213.726 145.418 213.859 149.422 214.021 149.422 C 214.185 149.422 221.776 141.972 230.891 132.867 C 240.005 123.761 247.641 116.312 247.857 116.312 C 248.074 116.312 255.79 123.852 265.004 133.068 M 178.798 171.023 L 178.798 197.268 L 171.236 197.268 L 163.672 197.268 L 162.353 195.948 L 161.032 194.628 L 161.032 171.058 C 161.032 141.953 159.967 144.53 171.935 144.688 L 178.798 144.777 L 178.798 171.023 M 333.114 145.625 C 335.319 147.264 335.267 146.612 335.159 171.52 L 335.059 194.628 L 333.739 195.949 L 332.42 197.268 L 324.856 197.268 L 317.293 197.268 L 317.188 171.427 C 317.132 157.214 317.175 145.348 317.286 145.055 C 317.666 144.06 331.687 144.564 333.114 145.625 M 113.378 193.937 C 113.491 194.437 113.969 196.663 114.438 198.883 C 123.318 240.952 156.347 279.415 197.372 295.458 C 206.543 299.044 223.012 303.594 223.012 302.54 C 223.012 302.146 113.876 193.029 113.48 193.029 C 113.31 193.029 113.264 193.437 113.378 193.937 M 327.202 247.724 C 297.12 277.806 272.596 302.506 272.703 302.614 C 273.01 302.919 281.662 300.959 286.861 299.406 C 334.354 285.218 370.585 246.537 381.516 198.35 C 382.576 193.676 382.661 193.029 382.198 193.029 C 382.032 193.029 357.284 217.64 327.202 247.724" stroke="none" fill="#1c1c24" fill-rule="evenodd" style=""/>
  </g>
</svg>