<?xml version="1.0" encoding="utf-8"?>
<svg viewBox="0 0 500 500" xmlns="http://www.w3.org/2000/svg">
  <g transform="matrix(1.522386, -0.010328, 0.010362, 1.527427, -152.97922, -108.232797)" style="">
    <path id="path0" d="M 259.814 73.026 C 247.81 75.605 240.33 87.261 243.248 98.842 L 243.775 100.934 L 186.024 158.686 L 128.272 216.438 L 126.06 215.896 C 109.036 211.724 94.471 229.556 102.063 245.276 C 106.5 254.462 117.549 259.548 126.801 256.663 L 128.59 256.105 L 186.302 313.814 C 226.895 354.405 243.957 371.658 243.824 371.978 C 239.319 382.852 247.069 396.829 259.087 399.503 C 274.557 402.945 288.584 387.9 283.877 372.915 L 283.169 370.659 L 340.592 313.237 L 398.014 255.814 L 400.114 256.471 C 415.321 261.226 430.168 247.467 426.831 231.713 C 424.47 220.568 412.216 212.977 401.303 215.902 C 400.3 216.17 399.206 216.457 398.871 216.539 C 398.388 216.657 386.493 204.911 340.751 159.15 L 283.238 101.614 L 283.885 99.79 C 284.679 97.554 284.838 91.389 284.172 88.696 C 281.565 78.144 270.156 70.805 259.814 73.026 M 249.127 108.734 C 256.735 116.177 269.6 116.542 277.345 109.532 C 278.371 108.604 279.326 107.845 279.467 107.845 C 279.608 107.845 305.081 133.203 336.074 164.197 L 392.426 220.549 L 391.273 221.719 C 383.569 229.544 383.485 242.378 391.082 250.787 L 392.142 251.96 L 335.731 308.37 L 279.321 364.781 L 277.568 363.218 C 269.44 355.973 253.907 356.75 248.354 364.679 C 248.118 365.016 247.762 365.291 247.562 365.291 C 247.362 365.291 221.838 339.93 190.841 308.933 L 134.483 252.574 L 136.509 250.386 C 144.032 242.261 143.616 228.594 135.624 221.227 L 134.209 219.923 L 190.704 163.428 C 221.776 132.356 247.219 106.933 247.243 106.933 C 247.267 106.933 248.115 107.743 249.127 108.734 M 204.398 197.031 C 202.993 197.542 202.229 198.198 201.782 199.28 C 201.541 199.863 201.469 210.46 201.526 236.624 L 201.607 273.154 L 202.506 274.093 C 203.948 275.598 204.648 275.674 216.099 275.57 C 226.201 275.478 226.675 275.448 227.497 274.844 C 229.55 273.337 229.418 276.005 229.418 236.112 C 229.418 195.863 229.573 198.695 227.291 197.369 C 225.904 196.562 206.477 196.276 204.398 197.031 M 300.035 197.187 C 297.436 198.367 297.656 194.773 297.656 236.152 C 297.656 277.545 297.435 273.807 299.957 275.093 C 301.7 275.982 321.381 275.892 323.252 274.987 C 325.813 273.747 325.608 276.897 325.702 237.184 C 325.8 196.073 325.98 198.456 322.661 197.069 C 320.799 196.291 301.791 196.39 300.035 197.187 M 182.154 213.902 C 178.629 214.753 178.825 213.376 178.719 237.936 C 178.618 261.267 178.616 261.228 179.895 262.684 C 181.167 264.133 182.552 264.379 189.431 264.379 L 195.376 264.379 L 195.376 239 L 195.376 213.62 L 189.221 213.651 C 185.836 213.668 182.656 213.781 182.154 213.902 M 331.546 238.995 L 331.546 264.421 L 338.309 264.324 C 349.284 264.167 348.25 266.8 348.25 239 C 348.25 211.202 349.285 213.838 338.309 213.671 L 331.546 213.569 L 331.546 238.995 M 235.194 236.112 L 235.194 247.358 L 263.461 247.358 L 291.728 247.358 L 291.728 236.112 L 291.728 224.866 L 263.461 224.866 L 235.194 224.866 L 235.194 236.112" stroke="none" fill="#fafbfb" fill-rule="evenodd"/>
    <path id="path1" d="M 237.169 95.865 C 178.45 106.819 130.05 156.516 122.582 213.525 L 122.376 215.102 L 123.541 215.302 C 124.183 215.412 125.444 215.686 126.344 215.911 L 127.981 216.319 L 129.582 214.937 L 131.182 213.556 L 131.706 210.624 C 141.039 158.431 186.014 113.245 237.321 104.513 C 238.408 104.328 239.652 104.107 240.087 104.021 C 240.542 103.931 241.468 103.18 242.272 102.249 L 243.668 100.632 L 243.26 98.995 C 243.035 98.095 242.763 96.845 242.656 96.218 C 242.421 94.847 242.574 94.857 237.169 95.865 M 284.738 95.755 C 284.738 96.119 284.441 97.625 284.079 99.101 L 283.421 101.785 L 284.411 102.806 C 285.28 103.702 285.705 103.873 287.881 104.201 C 325.469 109.87 363.491 138.034 382.253 174.106 C 388.456 186.034 395.376 206.645 395.376 213.197 C 395.376 213.526 396.037 214.446 396.845 215.242 L 398.315 216.689 L 400.563 216.066 C 401.799 215.724 403.121 215.443 403.5 215.443 C 404.509 215.443 404.189 212.487 402.26 204.007 C 389.419 147.558 343.855 105.084 285.573 95.235 C 284.874 95.117 284.738 95.202 284.738 95.755 M 246.514 202.451 L 229.722 219.245 L 229.722 235.962 L 229.722 252.679 L 246.592 269.547 L 263.461 286.414 L 280.482 269.395 L 297.504 252.375 L 297.455 235.961 L 297.406 219.547 L 280.355 202.602 L 263.305 185.658 L 246.514 202.451 M 291.728 236.264 L 291.728 247.662 L 263.461 247.662 L 235.194 247.662 L 235.194 236.264 L 235.194 224.866 L 263.461 224.866 L 291.728 224.866 L 291.728 236.264 M 396.713 257.146 C 395.548 258.366 395.432 258.653 394.942 261.492 C 386.121 312.687 342.813 356.582 290.634 367.215 C 285.701 368.22 285.57 368.268 284.386 369.451 L 283.177 370.66 L 283.774 372.459 C 284.102 373.448 284.466 374.839 284.581 375.55 C 284.833 377.097 284.458 377.072 290.234 375.925 C 346.512 364.744 390.329 322.201 402.469 266.954 C 403.581 261.896 404.329 257.71 404.145 257.573 C 404.087 257.529 402.944 257.212 401.607 256.868 C 400.27 256.525 398.902 256.153 398.567 256.042 C 398.105 255.888 397.661 256.153 396.713 257.146 M 126.075 256.802 C 124.988 257.102 123.717 257.356 123.25 257.368 C 122.283 257.391 122.269 256.822 123.385 263.012 C 132.223 312.006 169.308 354.591 217.448 371.023 C 226.817 374.221 242.288 377.592 242.594 376.503 C 242.659 376.271 242.96 375.016 243.262 373.714 L 243.812 371.347 L 242.192 369.706 C 240.672 368.168 240.439 368.044 238.415 367.71 C 186.635 359.157 141.894 314.815 131.856 262.1 C 131.222 258.772 129.608 256.049 128.367 256.215 C 128.193 256.238 127.162 256.503 126.075 256.802" stroke="none" fill="#44aba3" fill-rule="evenodd"/>
    <path id="path2" d="M 234.282 105.261 C 189.272 114.946 151.153 149.106 136.551 192.842 C 134.213 199.847 131.143 212.102 131.61 212.569 C 131.672 212.631 156.133 188.273 185.966 158.44 C 220.754 123.652 239.99 104.206 239.6 104.222 C 239.266 104.236 236.873 104.704 234.282 105.261 M 340.652 158.744 C 370.653 188.745 395.235 213.254 395.281 213.208 C 395.431 213.058 393.612 204.597 392.677 201.102 C 381.062 157.658 347.517 122.436 304.494 108.51 C 298.847 106.682 288.54 104.197 286.604 104.197 C 286.33 104.197 310.652 128.743 340.652 158.744 M 190.912 163.544 L 134.625 219.851 L 136.505 221.86 C 144.222 230.107 144.091 243.215 136.212 251.091 L 134.758 252.545 L 191.116 308.904 L 247.475 365.263 L 249.009 363.773 C 256.831 356.176 269.573 355.788 277.558 362.905 L 279.321 364.477 L 335.579 308.218 L 391.838 251.96 L 390.704 250.706 C 383.264 242.47 383.328 229.801 390.851 221.908 L 392.134 220.561 L 335.796 164.222 L 279.458 107.883 L 277.708 109.503 C 269.911 116.722 256.982 116.591 249.272 109.214 C 248.135 108.127 247.203 107.237 247.202 107.237 C 247.2 107.237 221.87 132.575 190.912 163.544 M 280.405 202.448 L 297.2 219.241 L 297.2 210.545 C 297.2 195.506 296.246 196.446 311.485 196.446 C 323.43 196.446 323.434 196.447 324.979 198.52 L 325.619 199.378 L 325.699 235.853 C 325.787 276.515 325.932 273.693 323.687 275.089 C 322.601 275.764 322.379 275.779 312.181 275.868 C 296.345 276.007 297.2 276.825 297.2 261.527 L 297.2 252.679 L 280.253 269.624 L 263.307 286.568 L 246.591 269.849 L 229.874 253.13 L 229.722 262.988 C 229.509 276.805 230.467 275.93 215.57 275.93 C 204.855 275.93 204.08 275.842 202.588 274.457 C 201.098 273.074 201.118 273.638 201.213 235.45 L 201.303 199.378 L 201.943 198.52 C 203.455 196.491 203.65 196.457 214.292 196.348 C 230.443 196.183 229.722 195.543 229.722 210.03 L 229.722 218.938 L 246.363 202.297 C 255.516 193.145 263.141 185.656 263.308 185.656 C 263.474 185.656 271.168 193.213 280.405 202.448 M 195.606 238.924 L 195.683 264.379 L 188.939 264.379 C 181.429 264.379 180.273 264.132 179.184 262.287 C 178.452 261.048 178.367 217.192 179.094 215.786 C 180.182 213.683 181.701 213.334 189.449 213.409 L 195.528 213.468 L 195.606 238.924 M 346.125 214.086 C 348.55 215.511 348.415 214.046 348.415 239 C 348.415 267.103 349.532 264.341 338.157 264.365 L 331.242 264.379 L 331.242 239.05 C 331.242 225.119 331.344 213.619 331.469 213.494 C 332.044 212.919 345.031 213.444 346.125 214.086 M 340.664 313.484 C 304.524 349.635 286.362 368.005 286.865 367.899 C 339.678 356.703 376.806 323.362 391.895 273.581 C 393.13 269.507 395.563 258.908 395.263 258.908 C 395.241 258.908 370.672 283.467 340.664 313.484 M 131.546 259.768 C 131.546 259.99 132.023 262.384 132.607 265.087 C 142.377 310.375 176.656 348.432 220.756 362.951 C 227.719 365.244 238.544 367.974 239.461 367.668 C 239.622 367.615 215.407 343.224 185.65 313.468 C 155.893 283.711 131.546 259.546 131.546 259.768" stroke="none" fill="#1c1c24" fill-rule="evenodd"/>
  </g>
</svg>